#!OML:ASF F:\VICON\USERDATA\INSTALL\rory3\rory3.ASF
:FULLY-SPECIFIED
:DEGREES
2266
root 0.391238 17.7264 -3.97722 7.72959 -10.4416 6.29762
lowerback 5.0827 -3.48184 -2.76505
upperback 2.07443 -4.7362 5.79949
thorax 0.0283055 -2.44669 7.82756
lowerneck -18.7099 -9.21322 -11.9703
upperneck 10.9835 -11.9957 15.4567
head 8.19885 -4.92105 5.51341
rclavicle 2.70347e-014 -1.43125e-014
rhumerus -55.9967 -31.3228 -26.4328
rradius 22.4897
rwrist 4.51866
rhand -28.3002 -12.5603
rfingers 7.12502
rthumb -1.67585 -42.5334
lclavicle 2.70347e-014 -1.43125e-014
lhumerus -45.3863 26.786 52.7002
lradius 14.3541
lwrist -19.3123
lhand -13.2758 39.9489
lfingers 7.12502
lthumb 12.8273 69.5348
rfemur -36.1228 -6.87442 14.0953
rtibia 33.6628
rfoot -10.0137 -18.3083
rtoes 15.2012
lfemur 3.9379 1.52005 -28.6119
ltibia 16.7247
lfoot -10.5236 3.03992
ltoes -28.6688
2267
root 0.433799 17.6879 -4.0782 7.69338 -10.3243 6.32259
lowerback 5.34027 -3.48309 -3.08448
upperback 2.1037 -4.75464 5.64681
thorax -0.0685065 -2.4549 7.86659
lowerneck -18.4717 -9.16153 -12.2521
upperneck 11.0477 -11.9231 15.6616
head 8.20218 -4.8918 5.64883
rclavicle 1.59028e-014 1.59028e-015
rhumerus -55.0741 -30.7515 -28.3571
rradius 22.7202
rwrist 4.15164
rhand -28.6481 -12.0033
rfingers 7.12502
rthumb -2.01183 -41.9736
lclavicle 1.59028e-014 1.59028e-015
lhumerus -45.0648 25.7386 53.3546
lradius 14.6525
lwrist -17.8435
lhand -13.6379 39.3601
lfingers 7.12502
lthumb 12.4783 68.9675
rfemur -36.7332 -7.05497 14.0559
rtibia 34.0955
rfoot -9.46814 -18.384
rtoes 13.8553
lfemur 4.17921 1.65335 -28.7022
ltibia 15.7833
lfoot -11.0902 3.05003
ltoes -28.319
2268
root 0.474332 17.6531 -4.17693 7.57178 -10.231 6.47156
lowerback 5.61521 -3.41309 -3.46907
upperback 2.19681 -4.68558 5.39617
thorax -0.125897 -2.42109 7.83371
lowerneck -18.3634 -9.2752 -12.3223
upperneck 11.0564 -12.0992 15.7838
head 8.22697 -4.97263 5.67613
rclavicle -1.59028e-015 -3.18055e-015
rhumerus -54.272 -30.5161 -30.132
rradius 22.8338
rwrist 4.0816
rhand -28.9207 -12.1117
rfingers 7.12502
rthumb -2.2751 -42.0793
lclavicle -1.59028e-015 -3.18055e-015
lhumerus -44.3821 24.6868 54.0882
lradius 14.6918
lwrist -16.6225
lhand -14.1979 38.624
lfingers 7.12502
lthumb 11.9383 68.2636
rfemur -37.226 -7.20998 13.8648
rtibia 34.4665
rfoot -8.84855 -18.4798
rtoes 12.2148
lfemur 4.40857 1.84805 -28.929
ltibia 14.9835
lfoot -11.6351 3.05163
ltoes -27.2332
2269
root 0.514339 17.6267 -4.27053 7.49034 -10.192 6.56909
lowerback 5.77659 -3.33367 -3.79298
upperback 2.27596 -4.60134 5.16478
thorax -0.140514 -2.3804 7.77779
lowerneck -18.1668 -9.40264 -12.459
upperneck 11.1033 -12.2912 15.9006
head 8.25556 -5.06747 5.71233
rclavicle 7.15625e-015 4.45278e-014
rhumerus -53.5571 -30.6344 -31.5581
rradius 22.8897
rwrist 4.65869
rhand -29.0658 -12.101
rfingers 7.12502
rthumb -2.41523 -42.0671
lclavicle 7.15625e-015 4.45278e-014
lhumerus -43.7714 23.9627 54.6038
lradius 14.6564
lwrist -16.2245
lhand -14.1018 38.4561
lfingers 7.12502
lthumb 12.031 68.0903
rfemur -37.6702 -7.26803 13.7085
rtibia 34.7374
rfoot -8.69703 -18.6279
rtoes 12.8229
lfemur 4.52423 2.31166 -29.0813
ltibia 14.4114
lfoot -12.261 2.85597
ltoes -25.7634
2270
root 0.556255 17.6001 -4.36769 7.60114 -10.2335 6.64989
lowerback 5.8057 -3.25571 -4.11442
upperback 2.27894 -4.51618 4.96151
thorax -0.158816 -2.33738 7.74384
lowerneck -17.9769 -9.36055 -12.5809
upperneck 11.2249 -12.2405 15.911
head 8.26355 -5.05451 5.75049
rclavicle 7.15625e-014 -6.36111e-015
rhumerus -52.6636 -30.7027 -33.1227
rradius 22.9314
rwrist 5.37867
rhand -28.9899 -12.0201
rfingers 7.12502
rthumb -2.34191 -41.987
lclavicle 7.15625e-014 -6.36111e-015
lhumerus -43.2305 23.361 55.1128
lradius 14.7633
lwrist -16.0927
lhand -13.4789 38.5976
lfingers 7.12502
lthumb 12.6315 68.1956
rfemur -38.31 -7.23543 13.5762
rtibia 34.8955
rfoot -9.54811 -18.8553
rtoes 17.1681
lfemur 4.34098 2.87202 -29.2535
ltibia 13.9446
lfoot -12.7739 2.66816
ltoes -24.3257
2271
root 0.598938 17.577 -4.46471 7.78116 -10.3291 6.66304
lowerback 5.70513 -3.17763 -4.35494
upperback 2.3201 -4.42462 4.75834
thorax -0.0730741 -2.29515 7.65229
lowerneck -17.908 -9.29689 -12.6084
upperneck 11.3206 -12.1568 15.865
head 8.26828 -5.02152 5.75579
rclavicle -1.03368e-014 9.54166e-015
rhumerus -51.4828 -30.6819 -35.0283
rradius 22.9297
rwrist 5.95942
rhand -28.6326 -11.6066
rfingers 7.12502
rthumb -1.99684 -41.577
lclavicle -1.03368e-014 9.54166e-015
lhumerus -42.6046 23.348 55.3143
lradius 14.7091
lwrist -16.3263
lhand -12.9863 38.4014
lfingers 7.12502
lthumb 13.1064 67.9695
rfemur -38.978 -7.13252 13.5176
rtibia 34.9547
rfoot -9.88558 -19.1021
rtoes 19.5732
lfemur 3.99851 3.34025 -29.4261
ltibia 13.5859
lfoot -13.3115 2.71748
ltoes -23.1235
2272
root 0.637486 17.5597 -4.55642 7.85813 -10.4368 6.69194
lowerback 5.60058 -3.07323 -4.64387
upperback 2.42437 -4.30036 4.53815
thorax 0.0775805 -2.24115 7.56712
lowerneck -17.9576 -9.33811 -12.6907
upperneck 11.4886 -12.2157 15.8922
head 8.34876 -5.04465 5.76977
rclavicle -3.57812e-014 4.77083e-015
rhumerus -50.2322 -30.7272 -36.9629
rradius 22.8672
rwrist 6.69942
rhand -28.1512 -10.6745
rfingers 7.12502
rthumb -1.53196 -40.6488
lclavicle -3.57812e-014 4.77083e-015
lhumerus -41.7648 23.364 55.6009
lradius 14.4824
lwrist -16.6156
lhand -12.8825 38.0255
lfingers 7.12502
lthumb 13.2064 67.5872
rfemur -39.4691 -6.95685 13.4045
rtibia 34.9629
rfoot -9.45969 -19.3529
rtoes 19.3372
lfemur 3.69182 3.76108 -29.6312
ltibia 13.3684
lfoot -13.8221 2.90618
ltoes -21.9302
2273
root 0.672567 17.5431 -4.64852 7.84293 -10.4603 6.75325
lowerback 5.6273 -3.00057 -4.98639
upperback 2.49718 -4.22327 4.33158
thorax 0.135512 -2.20776 7.53976
lowerneck -17.9224 -9.36607 -12.8674
upperneck 11.719 -12.2469 15.9056
head 8.43586 -5.0628 5.802
rclavicle 9.93923e-015 -1.59028e-014
rhumerus -48.8536 -30.4943 -39.0539
rradius 22.7919
rwrist 7.27173
rhand -27.6182 -9.7952
rfingers 7.12502
rthumb -1.01714 -39.7725
lclavicle 9.93923e-015 -1.59028e-014
lhumerus -40.9352 23.0428 56.2043
lradius 14.3748
lwrist -16.6923
lhand -13.0031 37.7297
lfingers 7.12502
lthumb 13.0902 67.2988
rfemur -39.8143 -6.73233 13.2236
rtibia 34.9438
rfoot -9.20141 -19.6933
rtoes 19.2017
lfemur 3.47152 4.00542 -29.8537
ltibia 13.1808
lfoot -14.2084 3.12923
ltoes -20.6337
2274
root 0.709207 17.5263 -4.73662 7.82661 -10.382 6.88653
lowerback 5.61011 -3.0025 -5.36177
upperback 2.49536 -4.24506 4.14135
thorax 0.160725 -2.22135 7.5518
lowerneck -17.6483 -9.35636 -13.1253
upperneck 11.9286 -12.2199 15.8714
head 8.4665 -5.07343 5.8465
rclavicle 3.18055e-015 3.02153e-014
rhumerus -47.3 -29.9485 -41.317
rradius 22.7002
rwrist 7.68277
rhand -27.3231 -9.4845
rfingers 7.12502
rthumb -0.732161 -39.463
lclavicle 3.18055e-015 3.02153e-014
lhumerus -40.3203 22.5994 56.9331
lradius 14.4051
lwrist -16.6034
lhand -13.0554 37.7343
lfingers 7.12502
lthumb 13.0398 67.3067
rfemur -40.1044 -6.64323 12.9647
rtibia 34.8783
rfoot -9.09711 -19.9486
rtoes 19.9862
lfemur 3.25866 4.23303 -30.1388
ltibia 13.021
lfoot -14.5427 3.28941
ltoes -20.2924
2275
root 0.747087 17.5106 -4.8183 7.83727 -10.2978 7.09964
lowerback 5.51882 -3.01717 -5.7576
upperback 2.43947 -4.2815 3.93118
thorax 0.173557 -2.24003 7.55163
lowerneck -17.3618 -9.35405 -13.3203
upperneck 12.1809 -12.1976 15.6878
head 8.49349 -5.09582 5.82837
rclavicle -2.90226e-014 2.54444e-014
rhumerus -45.8174 -29.4671 -43.3835
rradius 22.4956
rwrist 8.38863
rhand -26.9707 -9.10335
rfingers 7.12502
rthumb -0.391825 -39.0827
lclavicle -2.90226e-014 2.54444e-014
lhumerus -39.7329 22.3322 57.5701
lradius 14.2447
lwrist -16.7641
lhand -13.2858 37.4768
lfingers 7.12502
lthumb 12.8177 67.0633
rfemur -40.3881 -6.56554 12.5907
rtibia 34.7677
rfoot -8.98418 -20.1978
rtoes 20.7892
lfemur 2.9502 4.40415 -30.5191
ltibia 12.99
lfoot -14.952 3.42541
ltoes -19.4209
